<?xml version="1.0" encoding="utf-8"?><svg xmlns="http://www.w3.org/2000/svg" xmlns:xlink="http://www.w3.org/1999/xlink"><symbol viewBox="0 0 100 100" preserveAspectRatio="xMidYMid" class="alds-ripple" style="background:rgba(0,0,0,0) 0% 0%" id="preloader" xmlns="http://www.w3.org/2000/svg"><circle cx="50" cy="50" r="0" fill="none" stroke="#9f00a5" stroke-width="7"><animate attributeName="r" calcMode="spline" values="0;40" keyTimes="0;1" dur="2.2" keySplines="0 0.2 0.8 1" begin="-1.1s" repeatCount="indefinite"/><animate attributeName="opacity" calcMode="spline" values="1;0" keyTimes="0;1" dur="2.2" keySplines="0.2 0 0.8 1" begin="-1.1s" repeatCount="indefinite"/></circle><circle cx="50" cy="50" r="0" fill="none" stroke="#e745dd" stroke-width="7"><animate attributeName="r" calcMode="spline" values="0;40" keyTimes="0;1" dur="2.2" keySplines="0 0.2 0.8 1" begin="0s" repeatCount="indefinite"/><animate attributeName="opacity" calcMode="spline" values="1;0" keyTimes="0;1" dur="2.2" keySplines="0.2 0 0.8 1" begin="0s" repeatCount="indefinite"/></circle></symbol><symbol viewBox="0 0 512 512" id="top" xmlns="http://www.w3.org/2000/svg"><circle cx="256" cy="256" r="256" fill="#273b7a"/><path d="M61.218 261.854l245.174 245.174c100.164-19.997 179.233-98.435 200.152-198.263l-44.153-44.153-7.009 4.012-36.523-36.709-19.768 13.222L256 102.047l-45.737 111.595-149.045 48.212z" fill="#121149"/><path d="M432.126 331.319c22.216 0 40.224-18.01 40.224-40.224 0-22.214-18.01-40.224-40.224-40.224-.412 0-.819.019-1.227.031-6.809-19.422-25.293-33.354-47.042-33.354-25.943 0-47.249 19.82-49.621 45.144-18.666.34-33.702 15.551-33.702 34.299 0 18.96 15.37 34.33 34.33 34.33h97.263v-.002z" fill="#38c6d9"/><path d="M432.126 250.87c-.412 0-.819.019-1.227.031-6.809-19.422-25.293-33.354-47.042-33.354-.29 0-.574.016-.862.021V331.32h49.131c22.216 0 40.224-18.01 40.224-40.224 0-22.215-18.008-40.226-40.224-40.226z" fill="#02b2b2"/><path d="M185.034 274.43c22.216 0 40.224-18.01 40.224-40.224s-18.01-40.224-40.224-40.224c-.412 0-.819.019-1.227.031-6.809-19.422-25.293-33.354-47.042-33.354-25.943 0-47.249 19.82-49.621 45.144-18.666.336-33.702 15.548-33.702 34.295 0 18.96 15.37 34.33 34.33 34.33h97.263v.002z" fill="#38c6d9"/><path d="M185.034 193.981c-.412 0-.819.019-1.227.031-6.718-19.163-24.809-32.954-46.18-33.32V274.43h47.407c22.216 0 40.224-18.01 40.224-40.224s-18.01-40.225-40.224-40.225z" fill="#02b2b2"/><path fill="#eaa22f" d="M162.621 292.511L256 382.707l90.505-90.196z"/><path fill="#e09112" d="M256 292.511v90.196l90.505-90.196z"/><path fill="#ffedb5" d="M256 102.041L122.397 308.048h118.95z"/><path fill="#fee187" d="M256 102.041l133.603 206.007h-118.95z"/><path fill="#ffc61b" d="M256 382.707l27.582-74.659L256 102.041l-27.583 206.007z"/><path fill="#eaa22f" d="M256 102.047v280.658l27.582-74.657z"/></symbol></svg>